<svg xmlns="http://www.w3.org/2000/svg" xmlns:xlink="http://www.w3.org/1999/xlink" width="87" zoomAndPan="magnify" viewBox="0 0 65.25 30.000001" height="40" preserveAspectRatio="xMidYMid meet" version="1.0"><defs><g/><clipPath id="0de40c17ef"><path d="M 0.691406 8.664062 L 12.300781 8.664062 L 12.300781 20.277344 L 0.691406 20.277344 Z M 0.691406 8.664062 " clip-rule="nonzero"/></clipPath></defs><g fill="#0658f6" fill-opacity="1"><g transform="translate(14.644243, 17.923398)"><g><path d="M 1.109375 -1.3125 L 1.109375 -3.609375 L 0.15625 -3.609375 L 0.15625 -4.625 L 1.109375 -4.625 L 1.109375 -5.8125 L 2.328125 -6.09375 L 2.328125 -4.625 L 3.640625 -4.625 L 3.640625 -3.609375 L 2.328125 -3.609375 L 2.328125 -1.5625 C 2.328125 -1.34375 2.375 -1.1875 2.46875 -1.09375 C 2.5625 -1 2.726562 -0.953125 2.96875 -0.953125 C 3.082031 -0.953125 3.1875 -0.957031 3.28125 -0.96875 C 3.382812 -0.988281 3.5 -1.019531 3.625 -1.0625 L 3.625 -0.078125 C 3.488281 -0.0351562 3.328125 0 3.140625 0.03125 C 2.960938 0.0625 2.804688 0.078125 2.671875 0.078125 C 2.160156 0.078125 1.769531 -0.0351562 1.5 -0.265625 C 1.238281 -0.503906 1.109375 -0.851562 1.109375 -1.3125 Z M 1.109375 -1.3125 "/></g></g></g><g fill="#0658f6" fill-opacity="1"><g transform="translate(18.180793, 17.923398)"><g><path d="M 0.484375 0 L 0.484375 -4.625 L 1.703125 -4.625 L 1.703125 -4.125 C 1.847656 -4.320312 2.023438 -4.472656 2.234375 -4.578125 C 2.441406 -4.679688 2.675781 -4.734375 2.9375 -4.734375 C 3.050781 -4.734375 3.148438 -4.722656 3.234375 -4.703125 C 3.316406 -4.691406 3.382812 -4.664062 3.4375 -4.625 L 3.4375 -3.5625 C 3.351562 -3.601562 3.253906 -3.632812 3.140625 -3.65625 C 3.035156 -3.675781 2.925781 -3.6875 2.8125 -3.6875 C 2.582031 -3.6875 2.363281 -3.625 2.15625 -3.5 C 1.957031 -3.382812 1.804688 -3.21875 1.703125 -3 L 1.703125 0 Z M 0.484375 0 "/></g></g></g><g fill="#0658f6" fill-opacity="1"><g transform="translate(21.566281, 17.923398)"><g><path d="M 1.953125 0.078125 C 1.453125 0.078125 1.046875 -0.0507812 0.734375 -0.3125 C 0.421875 -0.582031 0.265625 -0.925781 0.265625 -1.34375 C 0.265625 -1.78125 0.429688 -2.125 0.765625 -2.375 C 1.097656 -2.625 1.5625 -2.75 2.15625 -2.75 C 2.34375 -2.75 2.53125 -2.734375 2.71875 -2.703125 C 2.914062 -2.671875 3.109375 -2.625 3.296875 -2.5625 L 3.296875 -2.890625 C 3.296875 -3.160156 3.210938 -3.363281 3.046875 -3.5 C 2.878906 -3.632812 2.632812 -3.703125 2.3125 -3.703125 C 2.113281 -3.703125 1.898438 -3.671875 1.671875 -3.609375 C 1.441406 -3.546875 1.179688 -3.453125 0.890625 -3.328125 L 0.453125 -4.21875 C 0.816406 -4.382812 1.164062 -4.507812 1.5 -4.59375 C 1.84375 -4.675781 2.179688 -4.71875 2.515625 -4.71875 C 3.140625 -4.71875 3.625 -4.566406 3.96875 -4.265625 C 4.3125 -3.972656 4.484375 -3.550781 4.484375 -3 L 4.484375 0 L 3.296875 0 L 3.296875 -0.3125 C 3.097656 -0.175781 2.890625 -0.078125 2.671875 -0.015625 C 2.453125 0.046875 2.210938 0.078125 1.953125 0.078125 Z M 1.421875 -1.375 C 1.421875 -1.195312 1.5 -1.054688 1.65625 -0.953125 C 1.8125 -0.847656 2.015625 -0.796875 2.265625 -0.796875 C 2.460938 -0.796875 2.644531 -0.816406 2.8125 -0.859375 C 2.988281 -0.910156 3.148438 -0.984375 3.296875 -1.078125 L 3.296875 -1.78125 C 3.140625 -1.832031 2.976562 -1.875 2.8125 -1.90625 C 2.65625 -1.9375 2.488281 -1.953125 2.3125 -1.953125 C 2.03125 -1.953125 1.8125 -1.898438 1.65625 -1.796875 C 1.5 -1.691406 1.421875 -1.550781 1.421875 -1.375 Z M 1.421875 -1.375 "/></g></g></g><g fill="#0658f6" fill-opacity="1"><g transform="translate(26.266894, 17.923398)"><g><path d="M 0.484375 0 L 0.484375 -4.625 L 1.703125 -4.625 L 1.703125 -4.265625 C 1.878906 -4.410156 2.070312 -4.519531 2.28125 -4.59375 C 2.5 -4.675781 2.738281 -4.71875 3 -4.71875 C 3.53125 -4.71875 3.96875 -4.546875 4.3125 -4.203125 C 4.65625 -3.859375 4.828125 -3.414062 4.828125 -2.875 L 4.828125 0 L 3.609375 0 L 3.609375 -2.703125 C 3.609375 -2.992188 3.519531 -3.226562 3.34375 -3.40625 C 3.164062 -3.582031 2.9375 -3.671875 2.65625 -3.671875 C 2.445312 -3.671875 2.257812 -3.628906 2.09375 -3.546875 C 1.9375 -3.472656 1.804688 -3.359375 1.703125 -3.203125 L 1.703125 0 Z M 0.484375 0 "/></g></g></g><g fill="#0658f6" fill-opacity="1"><g transform="translate(31.305176, 17.923398)"><g><path d="M 0.09375 -0.546875 L 0.6875 -1.359375 C 0.96875 -1.179688 1.226562 -1.046875 1.46875 -0.953125 C 1.707031 -0.867188 1.953125 -0.828125 2.203125 -0.828125 C 2.472656 -0.828125 2.6875 -0.875 2.84375 -0.96875 C 3.007812 -1.0625 3.09375 -1.179688 3.09375 -1.328125 C 3.09375 -1.441406 3.046875 -1.535156 2.953125 -1.609375 C 2.859375 -1.679688 2.710938 -1.734375 2.515625 -1.765625 L 1.625 -1.890625 C 1.164062 -1.960938 0.816406 -2.109375 0.578125 -2.328125 C 0.335938 -2.554688 0.21875 -2.859375 0.21875 -3.234375 C 0.21875 -3.679688 0.390625 -4.035156 0.734375 -4.296875 C 1.085938 -4.566406 1.5625 -4.703125 2.15625 -4.703125 C 2.488281 -4.703125 2.816406 -4.648438 3.140625 -4.546875 C 3.460938 -4.453125 3.765625 -4.3125 4.046875 -4.125 L 3.46875 -3.34375 C 3.207031 -3.488281 2.960938 -3.597656 2.734375 -3.671875 C 2.503906 -3.742188 2.269531 -3.78125 2.03125 -3.78125 C 1.8125 -3.78125 1.632812 -3.738281 1.5 -3.65625 C 1.375 -3.570312 1.3125 -3.460938 1.3125 -3.328125 C 1.3125 -3.203125 1.359375 -3.101562 1.453125 -3.03125 C 1.546875 -2.96875 1.707031 -2.921875 1.9375 -2.890625 L 2.828125 -2.765625 C 3.273438 -2.703125 3.617188 -2.550781 3.859375 -2.3125 C 4.109375 -2.082031 4.234375 -1.789062 4.234375 -1.4375 C 4.234375 -1.21875 4.179688 -1.015625 4.078125 -0.828125 C 3.972656 -0.640625 3.832031 -0.476562 3.65625 -0.34375 C 3.476562 -0.207031 3.265625 -0.0976562 3.015625 -0.015625 C 2.773438 0.0546875 2.507812 0.09375 2.21875 0.09375 C 1.789062 0.09375 1.394531 0.0390625 1.03125 -0.0625 C 0.664062 -0.175781 0.351562 -0.335938 0.09375 -0.546875 Z M 0.09375 -0.546875 "/></g></g></g><g fill="#0658f6" fill-opacity="1"><g transform="translate(35.437086, 17.923398)"><g><path d="M 1.953125 0.078125 C 1.453125 0.078125 1.046875 -0.0507812 0.734375 -0.3125 C 0.421875 -0.582031 0.265625 -0.925781 0.265625 -1.34375 C 0.265625 -1.78125 0.429688 -2.125 0.765625 -2.375 C 1.097656 -2.625 1.5625 -2.75 2.15625 -2.75 C 2.34375 -2.75 2.53125 -2.734375 2.71875 -2.703125 C 2.914062 -2.671875 3.109375 -2.625 3.296875 -2.5625 L 3.296875 -2.890625 C 3.296875 -3.160156 3.210938 -3.363281 3.046875 -3.5 C 2.878906 -3.632812 2.632812 -3.703125 2.3125 -3.703125 C 2.113281 -3.703125 1.898438 -3.671875 1.671875 -3.609375 C 1.441406 -3.546875 1.179688 -3.453125 0.890625 -3.328125 L 0.453125 -4.21875 C 0.816406 -4.382812 1.164062 -4.507812 1.5 -4.59375 C 1.84375 -4.675781 2.179688 -4.71875 2.515625 -4.71875 C 3.140625 -4.71875 3.625 -4.566406 3.96875 -4.265625 C 4.3125 -3.972656 4.484375 -3.550781 4.484375 -3 L 4.484375 0 L 3.296875 0 L 3.296875 -0.3125 C 3.097656 -0.175781 2.890625 -0.078125 2.671875 -0.015625 C 2.453125 0.046875 2.210938 0.078125 1.953125 0.078125 Z M 1.421875 -1.375 C 1.421875 -1.195312 1.5 -1.054688 1.65625 -0.953125 C 1.8125 -0.847656 2.015625 -0.796875 2.265625 -0.796875 C 2.460938 -0.796875 2.644531 -0.816406 2.8125 -0.859375 C 2.988281 -0.910156 3.148438 -0.984375 3.296875 -1.078125 L 3.296875 -1.78125 C 3.140625 -1.832031 2.976562 -1.875 2.8125 -1.90625 C 2.65625 -1.9375 2.488281 -1.953125 2.3125 -1.953125 C 2.03125 -1.953125 1.8125 -1.898438 1.65625 -1.796875 C 1.5 -1.691406 1.421875 -1.550781 1.421875 -1.375 Z M 1.421875 -1.375 "/></g></g></g><g fill="#0658f6" fill-opacity="1"><g transform="translate(40.1377, 17.923398)"><g><path d="M 2.75 -0.984375 C 2.957031 -0.984375 3.148438 -1.023438 3.328125 -1.109375 C 3.503906 -1.191406 3.675781 -1.320312 3.84375 -1.5 L 4.578125 -0.734375 C 4.335938 -0.472656 4.050781 -0.269531 3.71875 -0.125 C 3.394531 0.0195312 3.050781 0.09375 2.6875 0.09375 C 2.351562 0.09375 2.035156 0.03125 1.734375 -0.09375 C 1.441406 -0.21875 1.1875 -0.382812 0.96875 -0.59375 C 0.75 -0.8125 0.578125 -1.066406 0.453125 -1.359375 C 0.328125 -1.660156 0.265625 -1.976562 0.265625 -2.3125 C 0.265625 -2.644531 0.328125 -2.957031 0.453125 -3.25 C 0.578125 -3.550781 0.75 -3.804688 0.96875 -4.015625 C 1.1875 -4.234375 1.441406 -4.40625 1.734375 -4.53125 C 2.035156 -4.65625 2.351562 -4.71875 2.6875 -4.71875 C 3.0625 -4.71875 3.414062 -4.644531 3.75 -4.5 C 4.09375 -4.351562 4.378906 -4.148438 4.609375 -3.890625 L 3.875 -3.109375 C 3.707031 -3.285156 3.523438 -3.421875 3.328125 -3.515625 C 3.140625 -3.609375 2.9375 -3.65625 2.71875 -3.65625 C 2.375 -3.65625 2.078125 -3.523438 1.828125 -3.265625 C 1.585938 -3.003906 1.46875 -2.6875 1.46875 -2.3125 C 1.46875 -1.9375 1.59375 -1.617188 1.84375 -1.359375 C 2.09375 -1.109375 2.394531 -0.984375 2.75 -0.984375 Z M 2.75 -0.984375 "/></g></g></g><g fill="#0658f6" fill-opacity="1"><g transform="translate(44.633937, 17.923398)"><g><path d="M 1.109375 -1.3125 L 1.109375 -3.609375 L 0.15625 -3.609375 L 0.15625 -4.625 L 1.109375 -4.625 L 1.109375 -5.8125 L 2.328125 -6.09375 L 2.328125 -4.625 L 3.640625 -4.625 L 3.640625 -3.609375 L 2.328125 -3.609375 L 2.328125 -1.5625 C 2.328125 -1.34375 2.375 -1.1875 2.46875 -1.09375 C 2.5625 -1 2.726562 -0.953125 2.96875 -0.953125 C 3.082031 -0.953125 3.1875 -0.957031 3.28125 -0.96875 C 3.382812 -0.988281 3.5 -1.019531 3.625 -1.0625 L 3.625 -0.078125 C 3.488281 -0.0351562 3.328125 0 3.140625 0.03125 C 2.960938 0.0625 2.804688 0.078125 2.671875 0.078125 C 2.160156 0.078125 1.769531 -0.0351562 1.5 -0.265625 C 1.238281 -0.503906 1.109375 -0.851562 1.109375 -1.3125 Z M 1.109375 -1.3125 "/></g></g></g><g fill="#0658f6" fill-opacity="1"><g transform="translate(48.170487, 17.923398)"><g><path d="M 1.078125 -5.1875 C 0.890625 -5.1875 0.726562 -5.253906 0.59375 -5.390625 C 0.457031 -5.523438 0.390625 -5.6875 0.390625 -5.875 C 0.390625 -6.0625 0.457031 -6.222656 0.59375 -6.359375 C 0.726562 -6.492188 0.890625 -6.5625 1.078125 -6.5625 C 1.273438 -6.5625 1.441406 -6.492188 1.578125 -6.359375 C 1.710938 -6.222656 1.78125 -6.0625 1.78125 -5.875 C 1.78125 -5.6875 1.710938 -5.523438 1.578125 -5.390625 C 1.441406 -5.253906 1.273438 -5.1875 1.078125 -5.1875 Z M 1.703125 -4.625 L 1.703125 0 L 0.484375 0 L 0.484375 -4.625 Z M 1.703125 -4.625 "/></g></g></g><g fill="#0658f6" fill-opacity="1"><g transform="translate(50.107559, 17.923398)"><g><path d="M 0.265625 -2.3125 C 0.265625 -2.644531 0.328125 -2.957031 0.453125 -3.25 C 0.585938 -3.550781 0.765625 -3.804688 0.984375 -4.015625 C 1.203125 -4.234375 1.460938 -4.40625 1.765625 -4.53125 C 2.066406 -4.65625 2.390625 -4.71875 2.734375 -4.71875 C 3.078125 -4.71875 3.398438 -4.65625 3.703125 -4.53125 C 4.003906 -4.40625 4.265625 -4.234375 4.484375 -4.015625 C 4.710938 -3.804688 4.890625 -3.550781 5.015625 -3.25 C 5.140625 -2.957031 5.203125 -2.644531 5.203125 -2.3125 C 5.203125 -1.976562 5.140625 -1.660156 5.015625 -1.359375 C 4.890625 -1.066406 4.710938 -0.8125 4.484375 -0.59375 C 4.265625 -0.382812 4.003906 -0.21875 3.703125 -0.09375 C 3.398438 0.03125 3.078125 0.09375 2.734375 0.09375 C 2.390625 0.09375 2.066406 0.03125 1.765625 -0.09375 C 1.460938 -0.21875 1.203125 -0.382812 0.984375 -0.59375 C 0.765625 -0.8125 0.585938 -1.066406 0.453125 -1.359375 C 0.328125 -1.660156 0.265625 -1.976562 0.265625 -2.3125 Z M 2.734375 -0.96875 C 3.085938 -0.96875 3.390625 -1.097656 3.640625 -1.359375 C 3.890625 -1.617188 4.015625 -1.9375 4.015625 -2.3125 C 4.015625 -2.6875 3.890625 -3.003906 3.640625 -3.265625 C 3.390625 -3.523438 3.085938 -3.65625 2.734375 -3.65625 C 2.378906 -3.65625 2.078125 -3.523438 1.828125 -3.265625 C 1.578125 -3.003906 1.453125 -2.6875 1.453125 -2.3125 C 1.453125 -1.9375 1.578125 -1.617188 1.828125 -1.359375 C 2.078125 -1.097656 2.378906 -0.96875 2.734375 -0.96875 Z M 2.734375 -0.96875 "/></g></g></g><g fill="#0658f6" fill-opacity="1"><g transform="translate(55.350221, 17.923398)"><g><path d="M 0.484375 0 L 0.484375 -4.625 L 1.703125 -4.625 L 1.703125 -4.265625 C 1.878906 -4.410156 2.070312 -4.519531 2.28125 -4.59375 C 2.5 -4.675781 2.738281 -4.71875 3 -4.71875 C 3.53125 -4.71875 3.96875 -4.546875 4.3125 -4.203125 C 4.65625 -3.859375 4.828125 -3.414062 4.828125 -2.875 L 4.828125 0 L 3.609375 0 L 3.609375 -2.703125 C 3.609375 -2.992188 3.519531 -3.226562 3.34375 -3.40625 C 3.164062 -3.582031 2.9375 -3.671875 2.65625 -3.671875 C 2.445312 -3.671875 2.257812 -3.628906 2.09375 -3.546875 C 1.9375 -3.472656 1.804688 -3.359375 1.703125 -3.203125 L 1.703125 0 Z M 0.484375 0 "/></g></g></g><g fill="#0658f6" fill-opacity="1"><g transform="translate(60.388505, 17.923398)"><g><path d="M 1.703125 -6.484375 L 1.703125 0 L 0.484375 0 L 0.484375 -6.21875 Z M 1.703125 -6.484375 "/></g></g></g><g clip-path="url(#0de40c17ef)"><path fill="#0658f6" d="M 2.152344 8.664062 L 10.929688 8.664062 C 11.734375 8.664062 12.394531 9.320312 12.394531 10.125 L 12.394531 18.90625 C 12.394531 19.710938 11.734375 20.367188 10.929688 20.367188 L 2.152344 20.367188 C 1.347656 20.367188 0.691406 19.710938 0.691406 18.90625 L 0.691406 10.125 C 0.691406 9.320312 1.347656 8.664062 2.152344 8.664062 " fill-opacity="1" fill-rule="evenodd"/></g><path fill="#ffffff" d="M 6.542969 10.492188 L 2.152344 12.679688 L 2.152344 13.785156 L 2.882812 13.785156 L 2.882812 13.050781 L 10.199219 13.050781 L 10.199219 13.785156 L 10.929688 13.785156 L 10.929688 12.679688 Z M 6.542969 16.089844 L 10.929688 13.898438 L 10.929688 18.539062 L 2.152344 18.539062 L 2.152344 13.898438 L 6.542969 16.089844 " fill-opacity="1" fill-rule="evenodd"/></svg>